<?xml version="1.0" encoding="UTF-8"?>
<svg width="300px" height="300px" viewBox="0 0 300 300" version="1.1" xmlns="http://www.w3.org/2000/svg" xmlns:xlink="http://www.w3.org/1999/xlink">
    <!-- Generator: Sketch 52.5 (67469) - http://www.bohemiancoding.com/sketch -->
    <title>icon</title>
    <desc>Created with Sketch.</desc>
    <defs>
        <linearGradient x1="0%" y1="0%" x2="100%" y2="100%" id="linearGradient-1">
            <stop stop-color="#1DDACB" offset="0%"></stop>
            <stop stop-color="#6078EA" offset="100%"></stop>
        </linearGradient>
    </defs>
    <g id="icon" stroke="none" stroke-width="1" fill="none" fill-rule="evenodd">
        <circle id="Oval" fill="url(#linearGradient-1)" cx="150" cy="150" r="150"></circle>
        <g id="Group" transform="translate(54.000000, 95.000000)" fill="#FFFFFF" fill-rule="nonzero">
            <path d="M3.97518267,0.00483594328 C1.71464793,0.218537721 -0.00974654169,2.12714664 4.14607511e-05,4.40463547 L4.14607511e-05,105.600222 C0.000298330882,108.030056 1.96399364,109.999757 4.38640417,110 L188.613637,110 C191.036048,109.999757 192.999743,108.030056 193,105.600222 L193,4.40463547 C192.999755,1.97479318 191.036056,0.00507889082 188.613637,0.00483594328 L4.38640417,0.00483594328 C4.2494057,-0.00161198109 4.11218114,-0.00161198109 3.97518267,0.00483594328 Z M9,9 L184,9 L184,101 L9,101 L9,9 Z M46.5,22 C36.8868366,22 29,29.8868442 29,39.5000328 C29,49.1131995 36.8868366,57 46.5,57 C56.1131613,57 64,49.1131995 64,39.5000328 C64,29.8868442 56.1131613,22 46.5,22 Z M46.5,57 C31.9170291,57 20.0004436,68.9245254 20.0004436,83.5174838 C19.9779177,85.1113396 20.8147542,86.5938645 22.190512,87.3973705 C23.5662698,88.2008765 25.2678028,88.2008765 26.6435606,87.3973705 C28.0193185,86.5938645 28.8561549,85.1113396 28.833629,83.5174838 C28.833629,73.7016282 36.6908005,65.8393086 46.5,65.8393086 C56.3091995,65.8393086 64.166371,73.7016282 64.166371,83.5174838 C64.1438451,85.1113396 64.9806815,86.5938645 66.3564394,87.3973705 C67.7321972,88.2008765 69.4337302,88.2008765 70.809488,87.3973705 C72.1852458,86.5938645 73.0220823,85.1113396 72.9995564,83.5174838 C72.9995564,68.9245254 61.0829709,57 46.5,57 Z M98.2326096,29.0049405 C96.648677,29.077942 95.2237179,30.0038229 94.4954147,31.4332189 C93.7671116,32.8626149 93.8463358,34.5779254 94.7031936,35.9319092 C95.5600514,37.285893 97.0641011,38.0724297 98.6478169,37.994734 L138.507715,37.994734 C140.105004,38.017781 141.590774,37.1661348 142.396046,35.7659354 C143.201318,34.3657359 143.201318,32.6339385 142.396046,31.2337391 C141.590774,29.8335397 140.105004,28.9818935 138.507715,29.0049405 L98.6478169,29.0049405 C98.5094906,28.9983532 98.3709359,28.9983532 98.2326096,29.0049405 Z M46,31 C51.023863,31 55,34.9761265 55,40.0000113 C55,45.0238735 51.023863,49 46,49 C40.976137,49 37,45.0238735 37,40.0000113 C37,34.9761265 40.976137,31 46,31 Z M98.221327,51.0049402 C96.6426856,51.0747857 95.2211668,52.0000664 94.4944172,53.430823 C93.7676675,54.8615795 93.8466329,56.5793922 94.701447,57.9345502 C95.556261,59.2897081 97.0564276,60.0753326 98.6345541,59.9942848 L151.527623,59.9942848 C153.117648,60.0178938 154.5969,59.1664151 155.398672,57.7660539 C156.200443,56.3656927 156.200443,54.6335324 155.398672,53.2331712 C154.5969,51.83281 153.117648,50.9813313 151.527623,51.0049402 L98.6345541,51.0049402 C98.4968874,50.9983533 98.3589936,50.9983533 98.221327,51.0049402 Z M98.1590052,73.0049405 C96.6018577,73.0802167 95.2019336,74.0065273 94.4865709,75.43494 C93.7712082,76.8633528 93.8490875,78.5768577 94.6908724,79.929994 C95.5326573,81.2831302 97.0104607,82.0703242 98.5676082,81.9950474 L159.585656,81.9950474 C161.156023,82.0156618 162.615732,81.1634465 163.406742,79.7641994 C164.197753,78.3649522 164.197753,76.6350358 163.406742,75.2357886 C162.615732,73.8365415 161.156023,72.9843262 159.585656,73.0049405 L98.5676082,73.0049405 C98.4314821,72.9983532 98.2951313,72.9983532 98.1590052,73.0049405 Z" id="Shape"></path>
        </g>
    </g>
</svg>